<svg width="227" height="18" viewBox="0 0 227 18" fill="none" xmlns="http://www.w3.org/2000/svg">
<path d="M8.29939 17.46C6.42028 17.46 4.75975 16.9609 3.3178 15.9626C1.10593 14.4293 2.63082e-10 12.1098 2.28534e-10 9.00405C1.98848e-10 6.33546 0.79601 4.1921 2.38803 2.57398C4.03877 0.884094 6.17234 0.0391481 8.78874 0.0391481C11.229 0.0391481 13.2223 0.782961 14.7686 2.27059C16.3215 3.74516 17.0979 5.76129 17.0979 8.31896C17.0979 9.82616 16.7195 11.1017 15.9626 12.1457C15.1992 13.2157 14.1814 13.7508 12.9091 13.7508C11.826 13.7508 11.1572 13.3397 10.9027 12.5176C10.2568 13.3462 9.36617 13.7605 8.23088 13.7605C6.88027 13.7605 5.84937 13.3201 5.13818 12.4393C4.43352 11.5585 4.08118 10.5145 4.08118 9.30745C4.08118 8.08734 4.42699 6.99445 5.11861 6.0288C5.81022 5.06315 6.82481 4.58032 8.16237 4.58032C9.56517 4.58032 10.5961 5.08272 11.2551 6.08752L11.4019 5.01095C11.4345 4.74344 11.702 4.60968 12.2044 4.60968C12.759 4.60968 13.02 4.74344 12.9874 5.01095L12.1653 10.5895C12.1196 10.9093 12.0967 11.1833 12.0967 11.4117C12.0967 12.3773 12.3904 12.8601 12.9776 12.8601C13.48 12.8601 13.9824 12.5111 14.4848 11.8129C15.1699 10.8668 15.5124 9.70219 15.5124 8.31896C15.5124 5.93746 14.8045 4.0714 13.3886 2.72079C12.1555 1.52677 10.6222 0.929766 8.78874 0.929766C6.81176 0.929766 5.14144 1.62138 3.77779 3.00461C2.31626 4.49224 1.5855 6.48879 1.5855 8.99427C1.57245 11.8716 2.5642 14.0052 4.56075 15.395C5.66994 16.1779 6.91942 16.5694 8.30917 16.5694C8.99427 16.5694 9.68588 16.4585 10.384 16.2367C10.5015 16.1975 10.6352 16.1779 10.7853 16.1779C11.0919 16.1779 11.3203 16.253 11.4704 16.403C11.5422 16.4748 11.578 16.5466 11.578 16.6183C11.578 16.801 11.4443 16.9315 11.1768 17.0098C10.2242 17.31 9.26504 17.46 8.29939 17.46ZM8.19173 12.8601C9.05951 12.8601 9.69893 12.4197 10.11 11.5389C10.521 10.6515 10.7266 9.84247 10.7266 9.11171C10.7266 8.3157 10.5308 7.5099 10.1393 6.69432C9.75439 5.87873 9.10519 5.47094 8.19173 5.47094C7.33047 5.46442 6.69432 5.91136 6.28326 6.81176C5.87873 7.71217 5.67647 8.52123 5.67647 9.23894C5.67647 10.035 5.87221 10.8375 6.26369 11.6465C6.65517 12.4556 7.29785 12.8601 8.19173 12.8601ZM29.7721 13.1929C29.7721 13.4865 29.5078 13.6333 28.9793 13.6333C28.4443 13.6333 28.1768 13.4865 28.1768 13.1929L28.1768 1.00806L24.0173 1.00806C23.4888 1.00806 23.2246 0.857995 23.2246 0.55786C23.2246 0.264249 23.4888 0.117444 24.0173 0.117444L33.9316 0.117444C34.4601 0.117444 34.7243 0.264249 34.7243 0.55786C34.7243 0.857995 34.4601 1.00806 33.9316 1.00806L29.7721 1.00806L29.7721 13.1929ZM37.5528 13.3103C37.5528 13.6039 37.2885 13.7508 36.76 13.7508C36.225 13.7508 35.9575 13.6039 35.9575 13.3103L35.9575 0.440416C35.9575 0.146805 36.225 -4.13859e-10 36.76 -4.19812e-10C37.2885 -4.2569e-10 37.5528 0.146805 37.5528 0.440416L37.5528 6.43007L45.5781 6.43007L45.5781 0.440416C45.5781 0.146805 45.8424 -5.20844e-10 46.3709 -5.26724e-10C46.9059 -5.32674e-10 47.1734 0.146805 47.1734 0.440416L47.1734 13.3103C47.1734 13.6039 46.9059 13.7508 46.3709 13.7508C45.8424 13.7508 45.5781 13.6039 45.5781 13.3103L45.5781 7.32069L37.5528 7.32069L37.5528 13.3103ZM49.1308 0.675304C49.1308 0.381694 49.3951 0.234888 49.9236 0.234888L58.7906 0.234888C59.3191 0.234888 59.5833 0.381694 59.5833 0.675304C59.5833 0.975439 59.3191 1.12551 58.7906 1.12551L50.7261 1.12551L50.7261 6.42028L57.6259 6.42028C58.161 6.42028 58.4285 6.57035 58.4285 6.87048C58.4285 7.17062 58.161 7.32069 57.6259 7.32069L50.7261 7.32069L50.7261 12.6252L58.7906 12.6252C59.3191 12.6252 59.5833 12.7753 59.5833 13.0755C59.5833 13.3691 59.3191 13.5159 58.7906 13.5159L49.9236 13.5159C49.3951 13.5159 49.1308 13.3691 49.1308 13.0755L49.1308 0.675304ZM67.7946 13.3006C67.7946 13.6007 67.5304 13.7508 67.0019 13.7508C66.4669 13.7508 66.1994 13.6007 66.1994 13.3006L66.1994 0.685091C66.1994 0.384956 66.4669 0.234888 67.0019 0.234888L73.1579 0.234888C74.1823 0.234888 75.1088 0.561122 75.9374 1.21359C76.7661 1.85953 77.1804 2.72731 77.1804 3.81694C77.1804 4.90003 76.7661 5.76781 75.9374 6.42028C75.1088 7.07275 74.1823 7.39898 73.1579 7.39898L67.7946 7.39898L67.7946 13.3006ZM67.7946 1.12551L67.7946 6.50836L73.1579 6.50836C73.8495 6.50836 74.427 6.22454 74.8902 5.65689C75.3535 5.08925 75.5851 4.47593 75.5851 3.81694C75.5851 3.15794 75.3535 2.54462 74.8902 1.97698C74.427 1.40933 73.8495 1.12551 73.1579 1.12551L67.7946 1.12551ZM79.4412 13.7508C78.9127 13.7508 78.6484 13.6007 78.6484 13.3006L78.6484 0.685091C78.6484 0.384956 78.9127 0.234888 79.4412 0.234888L85.4994 0.234888C86.5303 0.234888 87.4731 0.55786 88.3278 1.2038C89.1891 1.84322 89.6197 2.71427 89.6197 3.81694C89.6197 4.76954 89.2771 5.56555 88.592 6.20497C87.907 6.83786 87.1175 7.21955 86.2236 7.35005C86.6151 7.67628 86.9348 8.07102 87.1827 8.53428C87.4372 8.99753 87.6753 9.48362 87.8972 9.99254C88.1647 10.5863 88.4583 11.1637 88.778 11.7248C89.0977 12.2794 89.5251 12.6938 90.0601 12.9678C90.2363 13.0591 90.3244 13.1701 90.3244 13.3006C90.3244 13.4115 90.2558 13.5093 90.1188 13.5942C89.9622 13.692 89.7665 13.741 89.5316 13.741C89.3163 13.741 89.1401 13.7051 89.0031 13.6333C88.2789 13.2679 87.7308 12.7721 87.3589 12.1457C86.987 11.5128 86.651 10.8636 86.3508 10.1981C86.0376 9.4934 85.6984 8.85072 85.333 8.27003C84.9676 7.68933 84.4424 7.39898 83.7573 7.39898L80.2437 7.39898L80.2437 13.3006C80.2437 13.6007 79.9762 13.7508 79.4412 13.7508ZM85.4994 6.50836C87.1827 6.50836 88.0244 5.61122 88.0244 3.81694C88.0244 2.02265 87.1827 1.12551 85.4994 1.12551L80.2437 1.12551L80.2437 6.50836L85.4994 6.50836ZM97.8995 -1.09993e-09C99.9287 -1.1225e-09 101.534 0.662255 102.715 1.98676C103.896 3.31127 104.486 4.93918 104.486 6.87048C104.486 8.80831 103.896 10.4395 102.715 11.764C101.534 13.0885 99.9287 13.7508 97.8995 13.7508C95.8703 13.7508 94.2653 13.0885 93.0843 11.764C91.9033 10.4395 91.3128 8.80831 91.3128 6.87048C91.3128 4.93918 91.9033 3.31127 93.0843 1.98676C94.2653 0.662255 95.8703 -1.07736e-09 97.8995 -1.09993e-09ZM97.8995 0.890618C96.2553 0.890618 95.0123 1.52025 94.1706 2.77951C93.329 4.03225 92.9081 5.39591 92.9081 6.87048C92.9081 8.34506 93.329 9.71198 94.1706 10.9712C95.0123 12.2305 96.2553 12.8601 97.8995 12.8601C99.5437 12.8601 100.787 12.2305 101.628 10.9712C102.47 9.71198 102.891 8.34506 102.891 6.87048C102.891 5.39591 102.47 4.03225 101.628 2.77951C100.787 1.52025 99.5437 0.890618 97.8995 0.890618ZM106.747 0.234888L111.308 0.234888C113.246 0.234888 114.736 0.897143 115.78 2.22165C116.831 3.54616 117.356 5.10556 117.356 6.89984C117.363 8.70718 116.841 10.2633 115.79 11.5683C114.746 12.8667 113.252 13.5159 111.308 13.5159L106.747 13.5159C106.218 13.5159 105.954 13.3691 105.954 13.0755L105.954 0.675304C105.954 0.381694 106.218 0.234888 106.747 0.234888ZM111.308 1.12551L107.549 1.12551L107.549 12.6252L111.308 12.6252C112.828 12.6252 113.953 12.0054 114.684 10.7657C115.415 9.5195 115.777 8.23088 115.771 6.89984C115.771 5.58186 115.405 4.28997 114.674 3.02419C113.95 1.7584 112.828 1.12551 111.308 1.12551ZM128.092 0.450203C128.092 0.150068 128.36 -1.43877e-09 128.895 -1.44473e-09C129.423 -1.4506e-09 129.688 0.150068 129.688 0.450203L129.688 9.31724C129.688 10.72 129.094 11.8097 127.906 12.5861C126.726 13.3625 125.502 13.7508 124.236 13.7508C122.984 13.7508 121.77 13.3593 120.596 12.5763C119.421 11.7934 118.834 10.707 118.834 9.31724L118.834 0.450203C118.834 0.150068 119.098 -1.33575e-09 119.627 -1.34162e-09C120.162 -1.34758e-09 120.429 0.150068 120.429 0.450203L120.429 9.31724C120.429 10.322 120.824 11.1637 121.613 11.8423C122.403 12.5209 123.277 12.8601 124.236 12.8601C125.209 12.8667 126.093 12.5306 126.889 11.8521C127.691 11.1735 128.092 10.3286 128.092 9.31724L128.092 0.450203ZM142.528 9.07256C143.057 9.07256 143.321 9.22589 143.321 9.53255C143.321 9.63042 143.282 9.81637 143.204 10.0904C142.858 11.2844 142.12 12.1946 140.992 12.821C139.869 13.4408 138.708 13.7508 137.508 13.7508C135.504 13.7508 133.945 13.1146 132.829 11.8423C131.72 10.57 131.166 8.94533 131.166 6.96835C131.166 4.96528 131.723 3.30475 132.839 1.98676C133.955 0.662255 135.557 -1.51883e-09 137.645 -1.54206e-09C138.871 -1.5557e-09 140.046 0.329496 141.168 0.988488C142.29 1.64748 142.982 2.60661 143.243 3.86587C143.282 4.00941 143.301 4.12033 143.301 4.19863C143.301 4.51834 143.034 4.67819 142.499 4.67819C142.003 4.67819 141.739 4.54117 141.706 4.26714C141.413 2.01612 140.059 0.890618 137.645 0.890618C135.987 0.890618 134.757 1.52351 133.955 2.7893C133.152 4.04856 132.751 5.41874 132.751 6.89984C132.751 8.35485 133.129 9.71198 133.886 10.9712C134.65 12.2305 135.857 12.8601 137.508 12.8601C138.499 12.8601 139.409 12.547 140.238 11.9206C141.073 11.2942 141.572 10.4786 141.736 9.47383C141.781 9.20632 142.045 9.07256 142.528 9.07256ZM150.603 13.1929C150.603 13.4865 150.338 13.6333 149.81 13.6333C149.275 13.6333 149.007 13.4865 149.007 13.1929L149.007 1.00806L144.848 1.00806C144.319 1.00806 144.055 0.857995 144.055 0.55786C144.055 0.264249 144.319 0.117444 144.848 0.117444L154.762 0.117444C155.291 0.117444 155.555 0.264249 155.555 0.55786C155.555 0.857995 155.291 1.00806 154.762 1.00806L150.603 1.00806L150.603 13.1929ZM168.043 13.7508C163.476 13.7508 161.192 11.4541 161.192 6.8607C161.192 4.79237 161.825 3.13184 163.091 1.87911C164.363 0.626369 166.03 -1.85782e-09 168.092 -1.88076e-09C169.325 -1.89447e-09 170.555 0.313184 171.782 0.939553C173.008 1.56592 173.775 2.52179 174.082 3.80715C174.127 3.98984 174.15 4.13338 174.15 4.23778C174.15 4.53139 173.886 4.67819 173.357 4.67819C172.855 4.67819 172.587 4.54117 172.555 4.26714C172.405 3.19709 171.88 2.36846 170.979 1.78124C170.085 1.18749 169.133 0.890618 168.121 0.890618C166.412 0.890618 165.094 1.49089 164.167 2.69143C163.241 3.89197 162.778 5.29477 162.778 6.89984C162.778 8.51144 163.218 9.91098 164.099 11.0985C164.986 12.2794 166.294 12.8667 168.023 12.8601C169.1 12.8601 170.082 12.5437 170.969 11.9108C172.046 11.1474 172.584 10.3416 172.584 9.4934L172.584 7.71217L168.023 7.71217C167.488 7.71217 167.221 7.5621 167.221 7.26196C167.221 6.96183 167.488 6.81176 168.023 6.81176L173.377 6.81176C173.905 6.81176 174.17 6.96183 174.17 7.26196L174.17 9.4934C174.17 10.0154 173.945 10.57 173.494 11.1572C173.044 11.7444 172.617 12.1816 172.212 12.4687C170.999 13.3234 169.609 13.7508 168.043 13.7508ZM176.685 13.7508C176.156 13.7508 175.892 13.6007 175.892 13.3006L175.892 0.685091C175.892 0.384956 176.156 0.234888 176.685 0.234888L182.743 0.234888C183.774 0.234888 184.717 0.55786 185.572 1.2038C186.433 1.84322 186.863 2.71427 186.863 3.81694C186.863 4.76954 186.521 5.56555 185.836 6.20497C185.151 6.83786 184.361 7.21955 183.467 7.35005C183.859 7.67628 184.179 8.07102 184.426 8.53428C184.681 8.99753 184.919 9.48362 185.141 9.99254C185.408 10.5863 185.702 11.1637 186.022 11.7248C186.341 12.2794 186.769 12.6938 187.304 12.9678C187.48 13.0591 187.568 13.1701 187.568 13.3006C187.568 13.4115 187.5 13.5093 187.363 13.5942C187.206 13.692 187.01 13.741 186.775 13.741C186.56 13.741 186.384 13.7051 186.247 13.6333C185.523 13.2679 184.975 12.7721 184.603 12.1457C184.231 11.5128 183.895 10.8636 183.595 10.1981C183.281 9.4934 182.942 8.85072 182.577 8.27003C182.211 7.68933 181.686 7.39898 181.001 7.39898L177.487 7.39898L177.487 13.3006C177.487 13.6007 177.22 13.7508 176.685 13.7508ZM182.743 6.50836C184.426 6.50836 185.268 5.61122 185.268 3.81694C185.268 2.02265 184.426 1.12551 182.743 1.12551L177.487 1.12551L177.487 6.50836L182.743 6.50836ZM195.143 -2.18168e-09C197.172 -2.20425e-09 198.778 0.662255 199.958 1.98676C201.139 3.31127 201.73 4.93918 201.73 6.87048C201.73 8.80831 201.139 10.4395 199.958 11.764C198.778 13.0885 197.172 13.7508 195.143 13.7508C193.114 13.7508 191.509 13.0885 190.328 11.764C189.147 10.4395 188.557 8.80831 188.557 6.87048C188.557 4.93918 189.147 3.31127 190.328 1.98676C191.509 0.662255 193.114 -2.1591e-09 195.143 -2.18168e-09ZM195.143 0.890618C193.499 0.890618 192.256 1.52025 191.414 2.77951C190.573 4.03225 190.152 5.39591 190.152 6.87048C190.152 8.34506 190.573 9.71198 191.414 10.9712C192.256 12.2305 193.499 12.8601 195.143 12.8601C196.787 12.8601 198.03 12.2305 198.872 10.9712C199.714 9.71198 200.135 8.34506 200.135 6.87048C200.135 5.39591 199.714 4.03225 198.872 2.77951C198.03 1.52025 196.787 0.890618 195.143 0.890618ZM212.456 0.450203C212.456 0.150068 212.724 -2.37725e-09 213.259 -2.3832e-09C213.788 -2.38908e-09 214.052 0.150068 214.052 0.450203L214.052 9.31724C214.052 10.72 213.458 11.8097 212.271 12.5861C211.09 13.3625 209.866 13.7508 208.6 13.7508C207.348 13.7508 206.134 13.3593 204.96 12.5763C203.785 11.7934 203.198 10.707 203.198 9.31724L203.198 0.450203C203.198 0.150068 203.462 -2.27422e-09 203.991 -2.28009e-09C204.526 -2.28605e-09 204.793 0.150068 204.793 0.450203L204.793 9.31724C204.793 10.322 205.188 11.1637 205.977 11.8423C206.767 12.5209 207.641 12.8601 208.6 12.8601C209.573 12.8667 210.457 12.5306 211.253 11.8521C212.055 11.1735 212.456 10.3286 212.456 9.31724L212.456 0.450203ZM217.614 13.3006C217.614 13.6007 217.35 13.7508 216.822 13.7508C216.286 13.7508 216.019 13.6007 216.019 13.3006L216.019 0.685091C216.019 0.384956 216.286 0.234888 216.822 0.234888L222.978 0.234888C224.002 0.234888 224.928 0.561122 225.757 1.21359C226.586 1.85953 227 2.72731 227 3.81694C227 4.90003 226.586 5.76781 225.757 6.42028C224.928 7.07275 224.002 7.39898 222.978 7.39898L217.614 7.39898L217.614 13.3006ZM217.614 1.12551L217.614 6.50836L222.978 6.50836C223.669 6.50836 224.247 6.22454 224.71 5.65689C225.173 5.08925 225.405 4.47593 225.405 3.81694C225.405 3.15794 225.173 2.54462 224.71 1.97698C224.247 1.40933 223.669 1.12551 222.978 1.12551L217.614 1.12551Z" fill="black"/>
</svg>
