<svg width="363" height="32" viewBox="0 0 363 32" fill="none" xmlns="http://www.w3.org/2000/svg">
<path d="M21.2205 31.772C20.2548 31.772 19.7066 31.5306 19.5761 31.0477L15.2106 16.3461L10.6886 31.0282C10.5189 31.5241 9.94467 31.772 8.96586 31.772C8.03926 31.772 7.49113 31.5437 7.32147 31.0869L0.0587284 12.8028C0.0195761 12.7245 0 12.6396 0 12.5483C0 12.0002 0.567707 11.7261 1.70312 11.7261C2.59057 11.7261 3.13218 11.9545 3.32794 12.4113L9.37696 27.6611L14.0752 12.4504C14.2188 11.9806 14.793 11.7457 15.7979 11.7457C16.7637 11.7457 17.3118 11.9806 17.4423 12.4504L21.9644 27.6415L28.0722 12.1959C28.1896 11.8827 28.5681 11.7261 29.2076 11.7261C29.9776 11.7261 30.3626 11.9023 30.3626 12.2547C30.3626 12.2938 30.3365 12.3917 30.2843 12.5483L22.9628 31.0477C22.767 31.5306 22.1863 31.772 21.2205 31.772ZM41.0511 31.772C38.1147 31.772 35.6807 30.8781 33.7492 29.0901C31.8308 27.2891 30.8715 24.8943 30.8715 21.9057C30.8715 18.8779 31.8438 16.4244 33.7884 14.5451C35.746 12.6657 38.2191 11.7261 41.2077 11.7261C44.0136 11.7261 46.4019 12.4896 48.3726 14.0165C50.3563 15.5434 51.3482 17.7882 51.3482 20.7507C51.3482 21.4554 50.8196 21.8078 49.7625 21.8078L34.0429 21.8078C34.0429 23.8959 34.6432 25.7818 35.8439 27.4653C37.0576 29.1488 38.7999 29.9906 41.0707 29.9906C42.7281 29.9906 44.2094 29.5469 45.5145 28.6594C46.924 27.7198 47.6874 26.6431 47.8049 25.4294C47.8701 24.8682 48.3922 24.5876 49.371 24.5876C50.4411 24.5876 50.9762 24.8812 50.9762 25.4685C50.9762 25.8862 50.8327 26.3951 50.5455 26.9955C50.0235 28.0917 49.1622 29.0314 47.9615 29.8144C46.0039 31.1195 43.7004 31.772 41.0511 31.772ZM48.1377 20.0068C47.8114 15.6739 45.5014 13.5075 41.2077 13.5075C37.3708 13.5075 35.0413 15.6739 34.2191 20.0068L48.1377 20.0068ZM73.7041 11.7065C76.6927 11.7065 79.0418 12.6657 80.7515 14.5842C82.4742 16.5027 83.3355 18.8844 83.3355 21.7295C83.3355 24.5615 82.4742 26.9433 80.7515 28.8748C79.0418 30.7932 76.6927 31.7525 73.7041 31.7525C70.7807 31.7525 68.6339 30.7737 67.2635 28.816L67.2635 30.8911C67.2635 31.4784 66.735 31.772 65.6779 31.772C64.6077 31.772 64.0726 31.4784 64.0726 30.8911L64.0726 5.14852C64.0726 4.56124 64.6077 4.26759 65.6779 4.26759C66.735 4.26759 67.2635 4.56124 67.2635 5.14852L67.2635 14.6429C68.6339 12.6853 70.7807 11.7065 73.7041 11.7065ZM73.7041 13.4879C71.5377 13.4879 69.9194 14.3884 68.8492 16.1895C67.7921 17.9774 67.2635 19.8241 67.2635 21.7295C67.2635 23.6219 67.7921 25.4685 68.8492 27.2695C69.9194 29.0705 71.5377 29.971 73.7041 29.971C75.8836 29.971 77.5019 29.0705 78.559 27.2695C79.6161 25.4685 80.1446 23.6219 80.1446 21.7295C80.1446 19.8241 79.6161 17.9774 78.559 16.1895C77.5019 14.3884 75.8836 13.4879 73.7041 13.4879ZM95.4727 31.772C92.5363 31.772 90.1024 30.8781 88.1708 29.0901C86.2524 27.2891 85.2932 24.8943 85.2932 21.9057C85.2932 18.8779 86.2654 16.4244 88.21 14.5451C90.1676 12.6657 92.6407 11.7261 95.6293 11.7261C98.4353 11.7261 100.824 12.4896 102.794 14.0165C104.778 15.5434 105.77 17.7882 105.77 20.7507C105.77 21.4554 105.241 21.8078 104.184 21.8078L88.4645 21.8078C88.4645 23.8959 89.0648 25.7818 90.2655 27.4653C91.4792 29.1488 93.2215 29.9906 95.4923 29.9906C97.1498 29.9906 98.631 29.5469 99.9361 28.6594C101.346 27.7198 102.109 26.6431 102.227 25.4294C102.292 24.8682 102.814 24.5876 103.793 24.5876C104.863 24.5876 105.398 24.8812 105.398 25.4685C105.398 25.8862 105.254 26.3951 104.967 26.9955C104.445 28.0917 103.584 29.0314 102.383 29.8144C100.425 31.1195 98.122 31.772 95.4727 31.772ZM102.559 20.0068C102.233 15.6739 99.923 13.5075 95.6293 13.5075C91.7924 13.5075 89.4629 15.6739 88.6407 20.0068L102.559 20.0068ZM127.147 11.7065C130.07 11.7065 132.217 12.6853 133.587 14.6429L133.587 5.14852C133.587 4.56124 134.116 4.26759 135.173 4.26759C136.243 4.26759 136.778 4.56124 136.778 5.14852L136.778 30.8911C136.778 31.4784 136.243 31.772 135.173 31.772C134.116 31.772 133.587 31.4784 133.587 30.8911L133.587 28.816C132.217 30.7737 130.07 31.7525 127.147 31.7525C124.158 31.7525 121.803 30.7932 120.08 28.8748C118.37 26.9433 117.515 24.5615 117.515 21.7295C117.515 18.8844 118.37 16.5027 120.08 14.5842C121.803 12.6657 124.158 11.7065 127.147 11.7065ZM127.147 13.4879C124.98 13.4879 123.362 14.3884 122.292 16.1895C121.235 17.9774 120.706 19.8241 120.706 21.7295C120.706 23.6219 121.235 25.4685 122.292 27.2695C123.362 29.0705 124.98 29.971 127.147 29.971C129.326 29.971 130.945 29.0705 132.002 27.2695C133.059 25.4685 133.587 23.6219 133.587 21.7295C133.587 19.8241 133.059 17.9774 132.002 16.1895C130.945 14.3884 129.326 13.4879 127.147 13.4879ZM149.992 11.7261C153.007 11.7261 155.474 12.6527 157.392 14.5059C159.31 16.3591 160.27 18.7735 160.27 21.7491C160.27 24.7246 159.31 27.139 157.392 28.9922C155.474 30.8454 153.007 31.772 149.992 31.772C146.978 31.772 144.511 30.8454 142.592 28.9922C140.674 27.139 139.715 24.7246 139.715 21.7491C139.715 18.7735 140.674 16.3591 142.592 14.5059C144.511 12.6527 146.978 11.7261 149.992 11.7261ZM149.992 13.5075C147.708 13.5075 145.953 14.3623 144.726 16.072C143.513 17.7816 142.906 19.674 142.906 21.7491C142.906 23.8241 143.513 25.7165 144.726 27.4261C145.953 29.1358 147.708 29.9906 149.992 29.9906C152.276 29.9906 154.025 29.1358 155.239 27.4261C156.465 25.7165 157.079 23.8241 157.079 21.7491C157.079 19.674 156.465 17.7816 155.239 16.072C154.025 14.3623 152.276 13.5075 149.992 13.5075ZM164.479 5.99029C165.653 5.99029 166.24 6.57758 166.24 7.75214C166.24 8.92671 165.653 9.51399 164.479 9.51399C163.304 9.51399 162.717 8.92671 162.717 7.75214C162.717 6.57758 163.304 5.99029 164.479 5.99029ZM162.873 12.607C162.873 12.0197 163.408 11.7261 164.479 11.7261C165.549 11.7261 166.084 12.0197 166.084 12.607L166.084 30.8715C166.084 31.4719 165.549 31.772 164.479 31.772C163.408 31.772 162.873 31.4719 162.873 30.8715L162.873 12.607ZM186.071 31.7916C185.014 31.7916 184.485 31.4915 184.485 30.8911L184.485 20.5158C184.485 18.8061 184.022 17.2205 183.095 15.7588C182.182 14.284 180.766 13.5467 178.847 13.5467C174.854 13.5467 172.857 16.0589 172.857 21.0835L172.857 30.8911C172.857 31.4915 172.329 31.7916 171.271 31.7916C170.201 31.7916 169.666 31.4915 169.666 30.8911L169.666 12.6266C169.666 12.0263 170.201 11.7261 171.271 11.7261C172.329 11.7261 172.857 12.0263 172.857 12.6266L172.857 14.8387C174.019 12.7506 176.107 11.7065 179.122 11.7065C181.21 11.6935 183.154 12.4308 184.955 13.9186C186.769 15.3934 187.676 17.5924 187.676 20.5158L187.676 30.8911C187.676 31.4915 187.141 31.7916 186.071 31.7916ZM192.942 5.46174C192.551 6.08817 192.081 6.558 191.533 6.87122C191.115 7.13223 190.652 7.26274 190.143 7.26274C189.804 7.26274 189.634 7.17139 189.634 6.98867C189.634 6.91037 189.706 6.84512 189.849 6.79291C190.423 6.57105 190.88 6.16648 191.22 5.57919C191.494 5.10937 191.65 4.63954 191.689 4.16971C191.611 4.18276 191.494 4.18929 191.337 4.18929C189.941 4.18929 189.242 3.49107 189.242 2.09464C189.242 0.698215 189.941 -2.11836e-09 191.337 -2.13389e-09C192.042 -2.14173e-09 192.609 0.234913 193.04 0.70474C193.523 1.20067 193.764 1.86626 193.764 2.7015C193.764 3.70641 193.49 4.62649 192.942 5.46174ZM216.022 31.772C211.898 31.7459 209.836 29.9906 209.836 26.5061L209.836 13.5075L207.252 13.5075C206.195 13.5075 205.667 13.2139 205.667 12.6266C205.667 12.0263 206.195 11.7261 207.252 11.7261L209.836 11.7261L209.836 5.1681C209.836 4.56776 210.372 4.26759 211.442 4.26759C212.499 4.26759 213.027 4.56776 213.027 5.1681L213.027 11.7261L216.708 11.7261C217.778 11.7261 218.313 12.0263 218.313 12.6266C218.313 13.2139 217.778 13.5075 216.708 13.5075L213.027 13.5075L213.027 26.5061C213.027 28.816 214.026 29.9776 216.022 29.9906C216.401 29.9906 216.76 29.958 217.099 29.8927C217.438 29.8144 217.778 29.7753 218.117 29.7753C219.2 29.7753 219.742 30.0754 219.742 30.6758C219.742 31.1065 219.285 31.4001 218.372 31.5567C217.589 31.7003 216.806 31.772 216.022 31.772ZM238.613 31.772C237.556 31.772 237.028 31.4784 237.028 30.8911L237.028 20.4962C237.028 18.1732 236.447 16.4309 235.285 15.2694C234.124 14.1079 232.838 13.5271 231.429 13.5271C227.409 13.501 225.399 16.0198 225.399 21.0835L225.399 30.8911C225.399 31.4784 224.871 31.772 223.814 31.772C222.744 31.772 222.209 31.4784 222.209 30.8911L222.209 5.14852C222.209 4.56124 222.744 4.26759 223.814 4.26759C224.871 4.26759 225.399 4.56124 225.399 5.14852L225.399 14.8387C226.561 12.7506 228.649 11.7065 231.664 11.7065C234.196 11.7065 236.251 12.5483 237.83 14.2318C239.422 15.9154 240.219 18.0035 240.219 20.4962L240.219 30.8911C240.219 31.4784 239.683 31.772 238.613 31.772ZM252.356 31.772C249.419 31.772 246.985 30.8781 245.054 29.0901C243.135 27.2891 242.176 24.8943 242.176 21.9057C242.176 18.8779 243.148 16.4244 245.093 14.5451C247.051 12.6657 249.524 11.7261 252.512 11.7261C255.318 11.7261 257.707 12.4896 259.677 14.0165C261.661 15.5434 262.653 17.7882 262.653 20.7507C262.653 21.4554 262.124 21.8078 261.067 21.8078L245.348 21.8078C245.348 23.8959 245.948 25.7818 247.149 27.4653C248.362 29.1488 250.105 29.9906 252.375 29.9906C254.033 29.9906 255.514 29.5469 256.819 28.6594C258.229 27.7198 258.992 26.6431 259.11 25.4294C259.175 24.8682 259.697 24.5876 260.676 24.5876C261.746 24.5876 262.281 24.8812 262.281 25.4685C262.281 25.8862 262.137 26.3951 261.85 26.9955C261.328 28.0917 260.467 29.0314 259.266 29.8144C257.309 31.1195 255.005 31.772 252.356 31.772ZM259.442 20.0068C259.116 15.6739 256.806 13.5075 252.512 13.5075C248.675 13.5075 246.346 15.6739 245.524 20.0068L259.442 20.0068ZM303.626 31.772C302.569 31.772 302.04 31.4784 302.04 30.8911L302.04 20.457C302.04 18.7996 301.668 17.24 300.924 15.7784C300.18 14.3036 298.856 13.5663 296.95 13.5663C295.058 13.5663 293.746 14.3101 293.015 15.7979C292.285 17.2727 291.919 18.8257 291.919 20.457L291.919 30.8911C291.919 31.4784 291.384 31.772 290.314 31.772C289.257 31.772 288.728 31.4784 288.728 30.8911L288.728 20.457C288.728 18.7996 288.369 17.24 287.652 15.7784C286.934 14.3036 285.616 13.5663 283.697 13.5663C281.805 13.5663 280.474 14.395 279.704 16.0524C278.947 17.6968 278.568 19.3738 278.568 21.0835L278.568 30.8715C278.568 31.4719 278.04 31.772 276.983 31.772C275.912 31.772 275.377 31.4719 275.377 30.8715L275.377 12.607C275.377 12.0197 275.912 11.7261 276.983 11.7261C278.04 11.7261 278.568 12.0197 278.568 12.607L278.568 14.7604C279.678 12.7375 281.596 11.7261 284.324 11.7261C287.012 11.7261 289.087 12.8158 290.549 14.9953C291.854 12.8158 293.994 11.7261 296.97 11.7261C302.477 11.7261 305.231 14.6364 305.231 20.457L305.231 30.8911C305.231 31.4784 304.696 31.772 303.626 31.772ZM318.464 11.7261C321.479 11.7261 323.946 12.6527 325.864 14.5059C327.783 16.3591 328.742 18.7735 328.742 21.7491C328.742 24.7246 327.783 27.139 325.864 28.9922C323.946 30.8454 321.479 31.772 318.464 31.772C315.45 31.772 312.983 30.8454 311.065 28.9922C309.146 27.139 308.187 24.7246 308.187 21.7491C308.187 18.7735 309.146 16.3591 311.065 14.5059C312.983 12.6527 315.45 11.7261 318.464 11.7261ZM318.464 13.5075C316.18 13.5075 314.425 14.3623 313.198 16.072C311.985 17.7816 311.378 19.674 311.378 21.7491C311.378 23.8241 311.985 25.7165 313.198 27.4261C314.425 29.1358 316.18 29.9906 318.464 29.9906C320.748 29.9906 322.497 29.1358 323.711 27.4261C324.937 25.7165 325.551 23.8241 325.551 21.7491C325.551 19.674 324.937 17.7816 323.711 16.072C322.497 14.3623 320.748 13.5075 318.464 13.5075ZM339.137 31.772C337.375 31.772 335.633 31.3805 333.91 30.5975C332.2 29.8014 331.156 28.4572 330.778 26.5648C330.726 26.3299 330.699 26.1537 330.699 26.0362C330.699 25.462 331.241 25.1749 332.324 25.1749C333.225 25.1749 333.74 25.4294 333.871 25.9384C334.575 28.6399 336.331 29.9906 339.137 29.9906C340.311 29.9906 341.46 29.6382 342.582 28.9335C343.718 28.2288 344.285 27.2043 344.285 25.8601C344.285 24.9987 343.672 24.3005 342.445 23.7654C341.636 23.4 340.566 23.1194 339.235 22.9236C338.269 22.7801 337.297 22.6235 336.318 22.4538C335.339 22.2842 334.412 21.9057 333.538 21.3184C331.959 20.2482 331.169 18.8714 331.169 17.1878C331.169 15.2433 332.102 13.8468 333.969 12.9985C335.835 12.1502 337.577 11.7261 339.195 11.7261C340.801 11.7261 342.354 12.0915 343.855 12.8224C345.355 13.5532 346.347 14.7343 346.83 16.3656C346.895 16.5875 346.928 16.7441 346.928 16.8355C346.928 17.3836 346.393 17.6577 345.323 17.6577C344.396 17.6577 343.874 17.4097 343.757 16.9138C343.195 14.6429 341.675 13.5075 339.195 13.5075C338.138 13.5075 337.068 13.8077 335.985 14.408C334.902 14.9953 334.36 15.9023 334.36 17.1291C334.36 17.9774 335.045 18.6756 336.416 19.2238C337.277 19.5761 338.328 19.8502 339.567 20.0459C340.494 20.1765 341.434 20.3396 342.386 20.5354C343.339 20.7181 344.259 21.0965 345.147 21.6708C346.687 22.6757 347.457 24.033 347.457 25.7426C347.457 27.8438 346.523 29.3772 344.657 30.343C342.804 31.2957 340.964 31.772 339.137 31.772ZM359.281 31.772C355.157 31.7459 353.094 29.9906 353.094 26.5061L353.094 13.5075L350.51 13.5075C349.453 13.5075 348.925 13.2139 348.925 12.6266C348.925 12.0263 349.453 11.7261 350.51 11.7261L353.094 11.7261L353.094 5.1681C353.094 4.56776 353.63 4.26759 354.7 4.26759C355.757 4.26759 356.285 4.56776 356.285 5.1681L356.285 11.7261L359.966 11.7261C361.036 11.7261 361.571 12.0263 361.571 12.6266C361.571 13.2139 361.036 13.5075 359.966 13.5075L356.285 13.5075L356.285 26.5061C356.285 28.816 357.284 29.9776 359.281 29.9906C359.659 29.9906 360.018 29.958 360.357 29.8927C360.697 29.8144 361.036 29.7753 361.375 29.7753C362.458 29.7753 363 30.0754 363 30.6758C363 31.1065 362.543 31.4001 361.63 31.5567C360.847 31.7003 360.064 31.772 359.281 31.772Z" fill="black"/>
</svg>
